<svg width="651" height="161" viewBox="0 0 651 161" fill="none" xmlns="http://www.w3.org/2000/svg">
<path d="M65.343 59.9709C62.9298 61.5797 61.9383 64.1799 61.9383 70.1848V138.128C51.9115 143.74 40.2945 151.167 27.4616 160.37C19.848 155.17 6.41645 146.733 0 143.123V142.113C1.79586 140.915 3.40465 138.914 3.40465 134.892V15.8788L24.057 4V55.1632C30.2677 49.9627 33.6723 46.1465 38.2929 42.1432C45.9066 47.1567 58.9453 55.369 65.343 59.1852V59.9896V59.9709ZM41.286 146.153V66.5744C37.4885 63.7684 31.6707 60.3637 26.6572 57.3519L24.057 59.5593V135.715C27.6674 138.315 36.2726 143.74 40.8932 146.546L41.286 146.153Z" fill="white"/>
<g clip-path="url(#clip0_3681_2567)">
<path d="M110.782 137.312C108.147 135.874 104.962 133.963 101 131.446V100.905C112.412 94.7178 129.796 86.127 137 80.7341C131.408 71.746 121 51.991 116.393 42C104.602 49.5879 90.8009 55.3781 80.4123 58.1786V130.065C80.4123 136.252 79.4076 138.05 77 139.848V140.642C87.1991 145.638 103.009 154.626 111.597 160.019C115.009 156.216 120.526 150.577 125.171 145.96L110.782 137.331V137.312ZM101 55.3781L102.005 55.17C105.398 62.7579 114.194 77.9336 119.199 86.127C115.009 88.9275 107.199 92.712 101 95.7017V55.3781Z" fill="white"/>
</g>
<g clip-path="url(#clip1_3681_2567)">
<path d="M335.782 137.312C333.147 135.874 329.962 133.963 326 131.446V100.905C337.412 94.7178 354.796 86.127 362 80.7341C356.408 71.746 346 51.991 341.393 42C329.602 49.5879 315.801 55.3781 305.412 58.1786V130.065C305.412 136.252 304.408 138.05 302 139.848V140.642C312.199 145.638 328.009 154.626 336.597 160.019C340.009 156.216 345.526 150.577 350.171 145.96L335.782 137.331V137.312ZM326 55.3781L327.005 55.17C330.398 62.7579 339.194 77.9336 344.199 86.127C340.009 88.9275 332.199 92.712 326 95.7017V55.3781Z" fill="white"/>
</g>
<g clip-path="url(#clip2_3681_2567)">
<path d="M207.321 140.034V65.9664C207.321 61.7788 208.528 59.5729 210.755 57.9838V57.18C203.491 52.7868 194.434 46.5989 187.774 42L171.849 55.3853H171.642C167 52.1885 159.755 47.0101 153.302 42C148.283 47.384 143.849 51.5903 138 56.9743L138.396 57.3669C141.019 57.5726 144.642 58.9747 148.472 61.9658V136.445C148.472 143.025 146.868 145.231 145.057 146.633V147.437C148.887 150.241 155.34 155.233 161.377 159.813C165.604 155.625 171.245 150.428 176.094 146.241V146.035C173.472 144.035 171.66 143.044 169.245 141.044V62.7696C170.453 61.7788 176.302 57.18 176.302 57.18C179.528 59.3672 182.943 61.3676 186.585 64.1717V136.052C186.585 142.035 185.17 144.446 183.151 145.643V146.446C187.377 149.251 197.453 156.224 202.491 160.019C207.321 155.42 213.981 148.839 218 145.044L217.604 144.652C215.189 144.857 210.547 142.446 207.321 140.053V140.034Z" fill="white"/>
</g>
<g clip-path="url(#clip3_3681_2567)">
<path d="M432.321 140.034V65.9664C432.321 61.7788 433.528 59.5729 435.755 57.9838V57.18C428.491 52.7868 419.434 46.5989 412.774 42L396.849 55.3853H396.642C392 52.1885 384.755 47.0101 378.302 42C373.283 47.384 368.849 51.5903 363 56.9743L363.396 57.3669C366.019 57.5726 369.642 58.9747 373.472 61.9658V136.445C373.472 143.025 371.868 145.231 370.057 146.633V147.437C373.887 150.241 380.34 155.233 386.377 159.813C390.604 155.625 396.245 150.428 401.094 146.241V146.035C398.472 144.035 396.66 143.044 394.245 141.044V62.7696C395.453 61.7788 401.302 57.18 401.302 57.18C404.528 59.3672 407.943 61.3676 411.585 64.1717V136.052C411.585 142.035 410.17 144.446 408.151 145.643V146.446C412.377 149.251 422.453 156.224 427.491 160.019C432.321 155.42 438.981 148.839 443 145.044L442.604 144.652C440.189 144.857 435.547 142.446 432.321 140.053V140.034Z" fill="white"/>
</g>
<g clip-path="url(#clip4_3681_2567)">
<path d="M290 55.7238C287.803 57.3105 286.603 59.3244 286.603 65.8951V137.684C273.644 145.252 261.885 152.636 251.509 160.02C244.938 155.443 233.566 148.059 224.981 143.075V142.282C227.382 141.081 228.379 138.498 228.379 132.11V78.6702C228.379 69.4957 226.792 65.9154 223.394 60.3212C220.811 56.1306 219 52.9368 219 46.773C219 37.7612 226.385 30.3972 232.366 27L233.953 27.7934C231.166 31.1906 229.558 34.3844 229.558 38.9615C229.558 43.5385 233.139 46.5289 240.32 53.7099C246.098 59.4872 248.905 65.6713 248.905 77.6328V113.131C248.905 119.722 246.912 126.882 242.131 131.48V132.07C248.905 136.464 260.685 143.238 265.669 145.821L266.076 145.618V61.2976C263.675 59.3041 262.088 58.1039 259.301 56.3137V56.1103C264.082 51.9197 269.676 46.5289 273.867 42.3587C273.867 42.3587 285.24 51.5332 290.02 54.9304V55.7238H290Z" fill="white"/>
</g>
<g clip-path="url(#clip5_3681_2567)">
<path d="M515.608 139.116V67.355C515.608 66.1167 515.649 65.0408 515.689 64.0461C516.442 59.7424 517.907 56.7786 520.205 55.52L501.51 42L485.52 57.144L492.844 62.2799L493.007 109.478V137.574C491.684 138.67 484.442 145.024 484.442 145.024C481.594 143.278 478.299 140.213 474.128 136.701V66.4415C474.128 65.4468 474.169 64.5739 474.21 63.7416C474.983 59.6206 476.407 56.7583 478.665 55.4997L459.99 42L444 57.144L451.324 62.2799L451.568 127.464V134.731C451.568 139.319 450.245 141.735 447.845 143.481V144.354C455.738 149.165 465.604 155.945 472.847 160.98L490.179 146.323H490.403C496.77 150.708 503.341 155.519 510.359 160.98C515.852 155.072 520.673 150.484 527.02 144.557L526.573 144.11C523.725 143.887 519.778 142.364 515.608 139.076V139.116Z" fill="white"/>
</g>
<g clip-path="url(#clip6_3681_2567)">
<path d="M568.461 64.1145L581 52.1089L555.981 52.1872L556.079 0L534.337 19.3575V139.863C533.63 144.126 532.237 147.039 530 148.271L547.641 161L562.731 146.726L555.824 141.877L555.961 63.9972L568.461 64.095V64.1145Z" fill="white"/>
</g>
<path d="M645.6 13.6L623.4 24.8L626.8 0H611.2L614.4 24.8L592.4 13.6L587 29.4L611.6 33.6L594 51.2L607.4 61.2L618.8 39L630.6 61.2L644 51.2L626.2 33.6L651 29.4L645.6 13.6Z" fill="white"/>
<defs>
<clipPath id="clip0_3681_2567">
<rect width="60" height="118" fill="white" transform="translate(77 42)"/>
</clipPath>
<clipPath id="clip1_3681_2567">
<rect width="60" height="118" fill="white" transform="translate(302 42)"/>
</clipPath>
<clipPath id="clip2_3681_2567">
<rect width="80" height="118" fill="white" transform="translate(138 42)"/>
</clipPath>
<clipPath id="clip3_3681_2567">
<rect width="80" height="118" fill="white" transform="translate(363 42)"/>
</clipPath>
<clipPath id="clip4_3681_2567">
<rect width="71" height="133" fill="white" transform="translate(219 27)"/>
</clipPath>
<clipPath id="clip5_3681_2567">
<rect width="83" height="119" fill="white" transform="translate(444 42)"/>
</clipPath>
<clipPath id="clip6_3681_2567">
<rect width="51" height="161" fill="white" transform="translate(530)"/>
</clipPath>
</defs>
</svg>
