<?xml version="1.0" encoding="utf-8"?>
<!-- Generator: Adobe Illustrator 27.3.1, SVG Export Plug-In . SVG Version: 6.00 Build 0)  -->
<svg version="1.1" id="Livello_1" xmlns="http://www.w3.org/2000/svg" xmlns:xlink="http://www.w3.org/1999/xlink" x="0px" y="0px"
	 viewBox="0 0 153 61" style="enable-background:new 0 0 153 61;" xml:space="preserve">
<style type="text/css">
	.st0{clip-path:url(#SVGID_00000137837845351197206090000011517853036718407352_);}
	.st1{fill:#FF0A00;}
	.st2{fill-rule:evenodd;clip-rule:evenodd;fill:#FF0A00;}
</style>
<g>
	<defs>
		<rect id="SVGID_1_" y="0" width="152" height="61"/>
	</defs>
	<clipPath id="SVGID_00000065039633373856769700000001438474781875059094_">
		<use xlink:href="#SVGID_1_"  style="overflow:visible;"/>
	</clipPath>
	<g style="clip-path:url(#SVGID_00000065039633373856769700000001438474781875059094_);">
		<path class="st1" d="M93.7,0L91,6.4l-5,1.2l0-4L93.7,0z"/>
		<path class="st1" d="M23.8,5.7L30.1,0L30,41.4l2,1.4L27.6,47l-5.1-3.7c0.6-0.4,1.1-1.2,1.3-2.5V5.7z"/>
		<path class="st2" d="M143.7,11.6l-10.5,6.6l0,0l0,22.2c-0.1,0.9-0.6,1.4-1.3,1.7l8.6,5.4l10.5-6.8V19.5c0.1-1.6,0.4-2.7,1.1-2.9
			L143.7,11.6z M139.4,40L139.4,40l5.4,3.5l-0.1-24.6l-5.2-3.3L139.4,40z"/>
		<path class="st2" d="M36.4,18.2l10.5-6.6l8.3,5c-0.7,0.2-1,1.3-1.1,2.9v21.3l-10.5,6.8l-8.6-5.4c0.8-0.4,1.2-0.8,1.3-1.7
			L36.4,18.2L36.4,18.2z M42.6,40L42.6,40V15.7l5.2,3.3l0.1,24.6L42.6,40z"/>
		<path class="st2" d="M105.1,11.7l6.1,4.3h0c0.6,0.3,0.7,0.5,1.2,0.8c-1,2.7-2.8,5.7-5.1,8.7l-0.1,0.1l6.1,3.3
			c-0.7,0.7-1.1,1.3-1.1,2l0,10.8l-9.8,5.3l-6-2.9c-0.7-0.3-1.3-0.7-1.3-0.7l0,0c0.3-1.6,0.8-3.3,1-3.9l0,0l0,0
			c0.8-2.3,2.5-4.5,4.4-7.1c0.4-0.5,0.7-0.9,1.1-1.4l-0.1,0L95,27.1c0.7-0.4,1-1,1.2-1.6l0.1-9.3C98.9,14.8,101.9,13.3,105.1,11.7z
			 M104.8,26.5L104.8,26.5c1.7-2.4,3.4-4.9,4-6.2c-1.3-0.9-2.8-2.1-4.5-3.4l0,0l0,0l0,0l0,0l0,0c-0.6-0.5-1.3-1-2-1.5l0,9.9
			L104.8,26.5z M97.7,39.3c1.8,0.8,3.6,1.5,5.3,2.2c1.1,0.4,2.1,0.9,3.1,1.3l0-12l-1.9-1C101.3,33.4,98.8,36.8,97.7,39.3L97.7,39.3z
			"/>
		<path class="st1" d="M81.9,16l4.3-4.2l5.2,3.6c-0.6,0.4-1,1.1-1.1,2.4l0.1,23.9l2,1.4l-4.4,4.2l-5.1-3.7c0.6-0.4,1.1-1.2,1.3-2.5
			V41l0,0.1l-0.2-23.7l0,0L81.9,16z"/>
		<path class="st2" d="M70.1,11.7l-10.5,6.6l0,0l0,22.2c-0.1,0.9-0.6,1.4-1.3,1.7l7.1,4.5c-0.6,0.8-1,1.4-1.5,1.9
			c-1.2,1.6-2,2.6-2.8,4.8l0.1,0l-0.1,0c-0.2,0.5-0.8,2.2-1,3.9l0,0c0,0,0.6,0.4,1.3,0.7l6,2.9l9.9-5.3l0-16.2c0,0,0,0,0,0V19.6
			c0.1-1.6,0.4-2.7,1.1-2.9L70.1,11.7z M66.9,47.7L66.9,47.7l4.3-2.5l0,11.7c-1-0.4-2-0.8-3.1-1.3l0,0c-1.7-0.7-3.5-1.4-5.3-2.2
			l0.1,0c0.8-1.9,1-2.2,2.3-3.7C65.6,49.2,66.1,48.5,66.9,47.7L66.9,47.7L66.9,47.7z M65.8,40.1L65.8,40.1l5.4,3.5l-0.1-24.6
			l-5.2-3.3L65.8,40.1z"/>
		<path class="st1" d="M17.1,5.8l-3.6-1.5l0,10.8l7.3,0.1l0,0l-3.6,3.5l-3.7,0l0,22.7l2,1.4l-4.4,4.2l-5.1-3.7
			c0.6-0.4,1.1-1.2,1.3-2.5V18.5L0,18.5L3.6,15l3.8,0V5.5h0l0.1-0.1c0,0,0,0,0,0h0l9-5.4h7L17.1,5.8z"/>
		<path class="st1" d="M117.3,3.7l6.1-3.5l0.1,14.4l7.5,0l-3.6,3.5l-3.8,0l0.1,22.7l2,1.4l-4.4,4.2l-5.1-3.7
			c0.6-0.4,1.1-1.2,1.3-2.5L117.3,3.7z"/>
	</g>
</g>
</svg>
