<svg width="26" height="30" viewBox="0 0 26 30" fill="none" xmlns="http://www.w3.org/2000/svg">
<path d="M12.7261 16.0433C8.2654 16.0433 4.6344 12.4515 4.6344 8.03875C4.6344 3.62587 8.26534 0 12.7261 0C17.1868 0 20.8178 3.59184 20.8178 8.00454C20.8178 12.4174 17.1868 16.0433 12.7261 16.0433ZM12.7261 2.7366C9.78667 2.7366 7.36614 5.09697 7.36614 8.03881C7.36614 10.9804 9.78667 13.3066 12.7261 13.3066C15.6655 13.3066 18.086 10.9463 18.086 8.00442C18.086 5.06258 15.6655 2.7366 12.7261 2.7366Z" fill="#D12E27"/>
<path d="M24.1363 29.9997C23.3756 29.9997 22.7533 29.3841 22.7533 28.6316C22.7533 23.1926 18.2926 18.7456 12.7597 18.7456C7.22681 18.7454 2.76614 23.1924 2.76614 28.6316C2.76614 29.3841 2.14383 29.9997 1.38307 29.9997C0.622314 29.9997 0 29.3841 0 28.6316C0 21.6874 5.70555 16.0432 12.7254 16.0432C19.7451 16.0432 25.4507 21.6873 25.4507 28.6316C25.4852 29.3841 24.8974 30 24.1366 30L24.1363 29.9997Z" fill="#D12E27"/>
</svg>
