<?xml version="1.0" encoding="utf-8"?>
<!-- Generator: Adobe Illustrator 27.3.1, SVG Export Plug-In . SVG Version: 6.00 Build 0)  -->
<svg version="1.1" id="Livello_1" xmlns="http://www.w3.org/2000/svg" xmlns:xlink="http://www.w3.org/1999/xlink" x="0px" y="0px"
	 viewBox="0 0 26 30" style="enable-background:new 0 0 26 30;" xml:space="preserve">
<style type="text/css">
	.st0{fill:#FF0A00;}
</style>
<path class="st0" d="M13,16c-4.5,0-8.1-3.6-8.1-8c0-4.4,3.6-8,8.1-8c4.5,0,8.1,3.6,8.1,8C21.1,12.4,17.5,16,13,16z M13,2.7
	c-2.9,0-5.4,2.4-5.4,5.3c0,2.9,2.4,5.3,5.4,5.3c2.9,0,5.4-2.4,5.4-5.3C18.4,5.1,15.9,2.7,13,2.7z"/>
<path class="st0" d="M24.4,30c-0.8,0-1.4-0.6-1.4-1.4c0-5.4-4.5-9.9-10-9.9c-5.5,0-10,4.4-10,9.9C3,29.4,2.4,30,1.7,30
	c-0.8,0-1.4-0.6-1.4-1.4C0.3,21.7,6,16,13,16c7,0,12.7,5.6,12.7,12.6C25.8,29.4,25.2,30,24.4,30L24.4,30z"/>
</svg>
